<svg width="49" height="40" viewBox="0 0 49 40" fill="none"
     xmlns="http://www.w3.org/2000/svg">
    <!-- Первая кавычка (оригинал) -->
    <path d="M19.5844 22.5812V40H0V26.2455C0 18.8087 1.08802 13.4116 3.24594 10.0903C6.09294 5.63177 10.5901 2.27437 16.7374 0L21.1983 5.83033C17.4809 7.11191 14.7427 9.00722 12.9838 11.5343C11.2248 14.0614 10.2456 17.7437 10.0461 22.5812H19.5844Z"
          fill="white"/>

    <!-- Вторая кавычка (смещена на 22 + 5 = 27px по X) -->
    <path d="M46.5844 22.5812V40H27V26.2455C27 18.8087 28.088 13.4116 30.2459 10.0903C33.0929 5.63177 37.5901 2.27437 43.7374 0L48.1983 5.83033C44.4809 7.11191 41.7427 9.00722 39.9838 11.5343C38.2248 14.0614 37.2456 17.7437 37.0461 22.5812H46.5844Z"
          fill="white"/>
</svg>